<svg xmlns="http://www.w3.org/2000/svg" viewBox="0 0 135 40">
  <defs>
    <style>
      .a {
        isolation: isolate;
      }
    </style>
  </defs>
  <title>Artboard 1</title>
  <g>
    <path d="M30.1,19.8a5.87,5.87,0,0,1,2.8-4.9,5.87,5.87,0,0,0-4.7-2.5c-2-.2-3.9,1.2-4.9,1.2s-2.6-1.2-4.2-1.1a6.1,6.1,0,0,0-5.2,3.1c-2.3,3.9-.6,9.7,1.6,12.9,1.1,1.6,2.4,3.3,4,3.2s2.2-1,4.2-1,2.5,1,4.2,1,2.8-1.6,3.9-3.1A11.46,11.46,0,0,0,33.6,25,6,6,0,0,1,30.1,19.8Z"/>
    <path d="M26.9,10.3a5.49,5.49,0,0,0,1.3-4.1,6.58,6.58,0,0,0-3.8,1.9A5.29,5.29,0,0,0,23.1,12,4.3,4.3,0,0,0,26.9,10.3Z"/>
  </g>
  <g>
    <polygon points="45.2 31.5 43.2 31.5 43.2 18.7 45.2 18.7 45.2 31.5"/>
    <path d="M50.3,19a19.14,19.14,0,0,1-1.8,4.5l-1.2.1a21.81,21.81,0,0,0,1.1-4.4Z"/>
    <path d="M59.8,31.5H57.7l-1.1-3.6h-4l-1.1,3.6h-2l3.9-12.1h2.4Zm-3.6-5.1-1-3.2c-.1-.3-.3-1.1-.6-2.3h0c-.1.5-.3,1.3-.6,2.3l-1,3.2Z"/>
    <path d="M69.8,27a4.79,4.79,0,0,1-1.2,3.5,3.42,3.42,0,0,1-2.7,1.2,2.68,2.68,0,0,1-2.5-1.2h0v4.6H61.5V25.7c0-.9,0-1.9-.1-2.9h1.7l.1,1.4h0a3.29,3.29,0,0,1,3-1.6,3.37,3.37,0,0,1,2.6,1.2A4.72,4.72,0,0,1,69.8,27Zm-2,.1a3.28,3.28,0,0,0-.6-2.1,2,2,0,0,0-1.7-.9,2.11,2.11,0,0,0-1.3.5,2.55,2.55,0,0,0-.8,1.2,1.27,1.27,0,0,0-.1.6v1.5a2.27,2.27,0,0,0,.6,1.6,2.08,2.08,0,0,0,3.2-.1A3.51,3.51,0,0,0,67.8,27.1Z"/>
    <path d="M79.9,27a4.79,4.79,0,0,1-1.2,3.5A3.42,3.42,0,0,1,76,31.7a2.68,2.68,0,0,1-2.5-1.2h0v4.6H71.6V25.7c0-.9,0-1.9-.1-2.9h1.7l.1,1.4h0a3.29,3.29,0,0,1,3-1.6,3.37,3.37,0,0,1,2.6,1.2A5.3,5.3,0,0,1,79.9,27Zm-2,.1a3.28,3.28,0,0,0-.6-2.1,2,2,0,0,0-1.7-.9,2.11,2.11,0,0,0-1.3.5,2.55,2.55,0,0,0-.8,1.2,1.27,1.27,0,0,0-.1.6v1.5a2.27,2.27,0,0,0,.6,1.6,2.08,2.08,0,0,0,3.2-.1A3.51,3.51,0,0,0,77.9,27.1Z"/>
    <path d="M91.1,28.1A3.25,3.25,0,0,1,90,30.6a4.86,4.86,0,0,1-3.3,1.1,5.45,5.45,0,0,1-3.1-.8l.4-1.6a5.66,5.66,0,0,0,2.8.8,2.86,2.86,0,0,0,1.7-.5,1.61,1.61,0,0,0,.6-1.3,1.66,1.66,0,0,0-.5-1.2,5.16,5.16,0,0,0-1.7-.9c-2.1-.8-3.2-2-3.2-3.5a3.41,3.41,0,0,1,1.1-2.5,4.5,4.5,0,0,1,3-1,6.09,6.09,0,0,1,2.8.6l-.5,1.6a4.65,4.65,0,0,0-2.3-.6,2.54,2.54,0,0,0-1.6.5,1.61,1.61,0,0,0-.5,1.1,1.43,1.43,0,0,0,.6,1.2,4.88,4.88,0,0,0,1.8.9A5.75,5.75,0,0,1,90.4,26,3.14,3.14,0,0,1,91.1,28.1Z"/>
    <path d="M97.6,24.2H95.5v4.2c0,1.1.4,1.6,1.1,1.6a2.77,2.77,0,0,0,.9-.1l.1,1.5a6.05,6.05,0,0,1-1.5.2,2.14,2.14,0,0,1-1.8-.7,3.84,3.84,0,0,1-.6-2.4V24.1H92.4V22.6h1.3V21l1.9-.6v2.2h2.1v1.6Z"/>
    <path d="M107.2,27.1a4.79,4.79,0,0,1-1.2,3.3,4.08,4.08,0,0,1-3.2,1.3,3.87,3.87,0,0,1-3.1-1.3,4.47,4.47,0,0,1-1.1-3.2,4.46,4.46,0,0,1,1.2-3.3,3.94,3.94,0,0,1,3.2-1.3,3.87,3.87,0,0,1,3.1,1.3A4.77,4.77,0,0,1,107.2,27.1Zm-2,0a4.65,4.65,0,0,0-.5-2.1,1.86,1.86,0,0,0-1.7-1,2.1,2.1,0,0,0-1.8,1,4.66,4.66,0,0,0,0,4.2,1.9,1.9,0,0,0,1.8,1,2,2,0,0,0,1.7-1.1A3.94,3.94,0,0,0,105.2,27.1Z"/>
    <path d="M113.5,24.5c-.2,0-.4-.1-.6-.1a1.94,1.94,0,0,0-1.6.8,3.1,3.1,0,0,0-.5,1.7v4.6h-1.9v-6a25.28,25.28,0,0,0-.1-2.8h1.7l.1,1.7h.1a2.81,2.81,0,0,1,1-1.4,2.39,2.39,0,0,1,1.4-.5h.5l-.1,2Z"/>
    <path d="M122.2,26.7a2.77,2.77,0,0,1-.1.9h-5.8a2.63,2.63,0,0,0,.8,2,2.88,2.88,0,0,0,1.9.6,6.05,6.05,0,0,0,2.4-.4l.3,1.4a6.55,6.55,0,0,1-2.9.5,4.22,4.22,0,0,1-3.2-1.2,4.38,4.38,0,0,1-1.2-3.2,5.24,5.24,0,0,1,1.1-3.3,4,4,0,0,1,3.1-1.4,3.42,3.42,0,0,1,2.9,1.4A4.53,4.53,0,0,1,122.2,26.7Zm-1.8-.5a2.41,2.41,0,0,0-.4-1.5,1.76,1.76,0,0,0-1.5-.8,1.9,1.9,0,0,0-1.5.8,3.39,3.39,0,0,0-.6,1.5Z"/>
    <g class="a">
      <path d="M43.09,6.12A6.23,6.23,0,0,1,44.38,6a2.11,2.11,0,0,1,1.5.44,1.33,1.33,0,0,1,.46,1.07,1.43,1.43,0,0,1-.93,1.33v0a1.53,1.53,0,0,1,1.13,1.52,1.72,1.72,0,0,1-.46,1.22,2.57,2.57,0,0,1-1.9.57,7.46,7.46,0,0,1-1.1-.07Zm.71,2.48h.64a1,1,0,0,0,1.19-1c0-.71-.49-1-1.2-1a2.76,2.76,0,0,0-.63.05Zm0,2.91a3.44,3.44,0,0,0,.59,0c.73,0,1.41-.3,1.41-1.18S45.16,9.2,44.38,9.2H43.8Z"/>
      <path d="M48.27,6.53a.45.45,0,0,1-.46.49.45.45,0,0,1-.43-.49.46.46,0,0,1,.45-.5A.45.45,0,0,1,48.27,6.53Zm-.8,5.58V7.75h.72v4.36Z"/>
      <path d="M49.77,10.07c0,1.07.63,1.51,1.35,1.51a2.38,2.38,0,0,0,1.09-.23l.12.57A2.93,2.93,0,0,1,51,12.2,1.94,1.94,0,0,1,49.09,10c0-1.31.7-2.35,1.85-2.35S52.56,8.9,52.56,9.7a3.26,3.26,0,0,1,0,.37Zm2.1-.57c0-.5-.19-1.29-1-1.29s-1,.74-1.1,1.29Z"/>
      <path d="M53.45,8.93c0-.45,0-.82,0-1.18H54l0,.72h0a1.43,1.43,0,0,1,1.3-.82c.54,0,1.39.36,1.39,1.85v2.6h-.72V9.6c0-.7-.24-1.29-.91-1.29a1,1,0,0,0-1,.81,1.25,1.25,0,0,0,0,.37v2.62h-.72Z"/>
      <path d="M58.79,6.5V7.75h1v.6h-1V10.7c0,.54.14.85.54.85a1.43,1.43,0,0,0,.41-.05l0,.59a1.6,1.6,0,0,1-.63.11.94.94,0,0,1-.77-.33,1.74,1.74,0,0,1-.28-1.13V8.35h-.61v-.6h.61v-1Z"/>
      <path d="M64.13,9.89a2,2,0,0,1-2,2.31A2,2,0,0,1,60.28,10a2,2,0,0,1,2-2.31A2,2,0,0,1,64.13,9.89ZM61,9.94c0,1,.5,1.67,1.2,1.67s1.2-.71,1.2-1.69c0-.74-.33-1.67-1.18-1.67S61,9.11,61,9.94Zm1.44-4.07.78,1.29h-.55L62.2,6.3h0l-.47.85h-.53l.76-1.29Z"/>
      <path d="M65.89,6.5V7.75h1v.6h-1V10.7c0,.54.14.85.54.85a1.43,1.43,0,0,0,.41-.05l0,.59a1.6,1.6,0,0,1-.63.11.94.94,0,0,1-.77-.33,1.74,1.74,0,0,1-.28-1.13V8.35h-.61v-.6h.61v-1Z"/>
      <path d="M72.84,5.72V11c0,.39,0,.83,0,1.13h-.64l0-.76h0a1.44,1.44,0,0,1-1.34.86c-1,0-1.68-.89-1.68-2.21s.8-2.34,1.76-2.34a1.29,1.29,0,0,1,1.19.67h0V5.72Zm-.71,3.81a1.49,1.49,0,0,0,0-.33,1.08,1.08,0,0,0-1-.92c-.74,0-1.18.72-1.18,1.68s.39,1.61,1.16,1.61a1.11,1.11,0,0,0,1-.95,1.46,1.46,0,0,0,0-.34Z"/>
      <path d="M74.82,6.53a.45.45,0,1,1-.89,0,.46.46,0,0,1,.45-.5A.45.45,0,0,1,74.82,6.53ZM74,12.11V7.75h.71v4.36Z"/>
      <path d="M75.83,11.3a1.75,1.75,0,0,0,.94.31c.52,0,.76-.29.76-.65s-.2-.58-.73-.8c-.71-.28-1-.71-1-1.23a1.27,1.27,0,0,1,1.36-1.28,1.81,1.81,0,0,1,1,.27l-.18.58a1.42,1.42,0,0,0-.81-.25.6.6,0,0,0-.66.59c0,.36.24.52.75.74.68.29,1,.67,1,1.31a1.3,1.3,0,0,1-1.47,1.31,2.07,2.07,0,0,1-1.11-.3Z"/>
      <path d="M79.15,9.17c0-.56,0-1,0-1.42h.64l0,.75h0a1.52,1.52,0,0,1,1.4-.85c1,0,1.67.89,1.67,2.21,0,1.57-.86,2.34-1.79,2.34a1.35,1.35,0,0,1-1.21-.68h0v2.37h-.71Zm.71,1.16a1.93,1.93,0,0,0,0,.32,1.13,1.13,0,0,0,1.07.93c.76,0,1.2-.68,1.2-1.68S81.74,8.28,81,8.28a1.18,1.18,0,0,0-1.08,1,1.36,1.36,0,0,0,0,.32Z"/>
      <path d="M87.33,9.89a2,2,0,0,1-2,2.31A2,2,0,0,1,83.49,10a2,2,0,0,1,2-2.31A2,2,0,0,1,87.33,9.89Zm-3.12,0c0,1,.5,1.67,1.2,1.67s1.2-.71,1.2-1.69c0-.74-.33-1.67-1.18-1.67S84.21,9.11,84.21,9.94Z"/>
      <path d="M88.23,8.93c0-.45,0-.82,0-1.18h.63l0,.72h0a1.43,1.43,0,0,1,1.3-.82c.54,0,1.39.36,1.39,1.85v2.6h-.72V9.6c0-.7-.24-1.29-.91-1.29a1,1,0,0,0-1,.81,1.26,1.26,0,0,0,0,.37v2.62h-.72Z"/>
      <path d="M93.54,6.53a.44.44,0,1,1-.89,0A.46.46,0,0,1,93.1,6,.45.45,0,0,1,93.54,6.53Zm-.8,5.58V7.75h.72v4.36Z"/>
      <path d="M94.61,12.11c0-.3,0-.74,0-1.13V5.72h.71V8.45h0a1.44,1.44,0,0,1,1.34-.8c1,0,1.67.9,1.66,2.22,0,1.56-.89,2.33-1.76,2.33a1.38,1.38,0,0,1-1.32-.82h0l0,.72Zm.74-1.75a1.69,1.69,0,0,0,0,.29,1.13,1.13,0,0,0,1.07.93c.75,0,1.2-.68,1.2-1.67s-.41-1.62-1.17-1.62a1.17,1.17,0,0,0-1.09,1,1.78,1.78,0,0,0,0,.32Z"/>
      <path d="M99.27,5.72H100v6.39h-.72Z"/>
      <path d="M101.59,10.07c0,1.07.63,1.51,1.35,1.51a2.37,2.37,0,0,0,1.09-.23l.12.57a2.93,2.93,0,0,1-1.31.27A1.94,1.94,0,0,1,100.9,10c0-1.31.7-2.35,1.85-2.35s1.63,1.25,1.63,2.05a3.38,3.38,0,0,1,0,.37Zm2.1-.57c0-.5-.19-1.29-1-1.29s-1,.74-1.1,1.29Z"/>
      <path d="M110.38,5.72V11c0,.39,0,.83,0,1.13h-.64l0-.76h0a1.44,1.44,0,0,1-1.34.86c-1,0-1.68-.89-1.68-2.21s.81-2.34,1.76-2.34a1.29,1.29,0,0,1,1.19.67h0V5.72Zm-.72,3.81a1.61,1.61,0,0,0,0-.33,1.08,1.08,0,0,0-1-.92c-.74,0-1.18.72-1.18,1.68s.39,1.61,1.16,1.61a1.11,1.11,0,0,0,1-.95,1.58,1.58,0,0,0,0-.34Z"/>
      <path d="M113.75,12.11l-.06-.55h0a1.43,1.43,0,0,1-1.2.65,1.18,1.18,0,0,1-1.2-1.25c0-1.05.85-1.63,2.37-1.62V9.25c0-.36-.09-1-.89-1a1.82,1.82,0,0,0-1,.32L111.54,8a2.27,2.27,0,0,1,1.29-.39c1.2,0,1.5.91,1.5,1.78v1.63a6.78,6.78,0,0,0,.06,1Zm-.11-2.22c-.78,0-1.67.13-1.67,1a.67.67,0,0,0,.67.76,1,1,0,0,0,1-.73.87.87,0,0,0,0-.25Z"/>
      <path d="M115.48,8.93c0-.45,0-.82,0-1.18h.63l0,.72h0a1.43,1.43,0,0,1,1.3-.82c.54,0,1.39.36,1.39,1.85v2.6h-.72V9.6c0-.7-.24-1.29-.91-1.29a1,1,0,0,0-1,.81,1.23,1.23,0,0,0,0,.37v2.62h-.72Z"/>
      <path d="M119.9,11.3a1.75,1.75,0,0,0,.94.31c.52,0,.76-.29.76-.65s-.2-.58-.73-.8c-.71-.28-1-.71-1-1.23a1.27,1.27,0,0,1,1.36-1.28,1.81,1.81,0,0,1,1,.27L122,8.5a1.42,1.42,0,0,0-.81-.25.6.6,0,0,0-.66.59c0,.36.24.52.75.74.68.29,1,.67,1,1.31a1.3,1.3,0,0,1-1.47,1.31,2.08,2.08,0,0,1-1.11-.3Z"/>
    </g>
  </g>
</svg>
